<mxfile host="app.diagrams.net" agent="Mozilla/5.0 (Windows NT 10.0; Win64; x64) AppleWebKit/537.36 (KHTML, like Gecko) Chrome/138.0.0.0 Safari/537.36" version="27.1.6">
  <diagram name="第 1 页" id="wrCyiq9yKy8BV54rm3GR">
    <mxGraphModel dx="1029" dy="410" grid="1" gridSize="10" guides="1" tooltips="1" connect="1" arrows="1" fold="1" page="1" pageScale="1" pageWidth="827" pageHeight="1169" math="0" shadow="0">
      <root>
        <mxCell id="0" />
        <mxCell id="1" parent="0" />
        <mxCell id="XtQHe_jJkyNiMRD9y-V6-1" value="" style="rounded=0;whiteSpace=wrap;html=1;fillColor=none;movable=0;resizable=0;rotatable=0;deletable=0;editable=0;locked=1;connectable=0;" parent="1" vertex="1">
          <mxGeometry x="350" y="290" width="960" height="540" as="geometry" />
        </mxCell>
        <mxCell id="XtQHe_jJkyNiMRD9y-V6-2" value="" style="rounded=0;whiteSpace=wrap;html=1;fillColor=none;" parent="1" vertex="1">
          <mxGeometry x="660" y="350" width="330" height="420" as="geometry" />
        </mxCell>
        <mxCell id="XtQHe_jJkyNiMRD9y-V6-34" value="消耗品" style="rounded=1;whiteSpace=wrap;html=1;" parent="1" vertex="1">
          <mxGeometry x="681" y="370" width="55" height="40" as="geometry" />
        </mxCell>
        <mxCell id="XtQHe_jJkyNiMRD9y-V6-35" value="武器" style="rounded=1;whiteSpace=wrap;html=1;" parent="1" vertex="1">
          <mxGeometry x="737" y="370" width="55" height="40" as="geometry" />
        </mxCell>
        <mxCell id="XtQHe_jJkyNiMRD9y-V6-36" value="防具" style="rounded=1;whiteSpace=wrap;html=1;" parent="1" vertex="1">
          <mxGeometry x="793" y="370" width="55" height="40" as="geometry" />
        </mxCell>
        <mxCell id="XtQHe_jJkyNiMRD9y-V6-37" value="任务道具" style="rounded=1;whiteSpace=wrap;html=1;" parent="1" vertex="1">
          <mxGeometry x="905" y="370" width="60" height="40" as="geometry" />
        </mxCell>
        <mxCell id="XtQHe_jJkyNiMRD9y-V6-3" value="" style="shape=table;startSize=0;container=1;collapsible=0;childLayout=tableLayout;fillColor=none;rounded=0;shadow=0;" parent="1" vertex="1">
          <mxGeometry x="690" y="420" width="280" height="330" as="geometry" />
        </mxCell>
        <mxCell id="XtQHe_jJkyNiMRD9y-V6-4" value="" style="shape=tableRow;horizontal=0;startSize=0;swimlaneHead=0;swimlaneBody=0;strokeColor=inherit;top=0;left=0;bottom=0;right=0;collapsible=0;dropTarget=0;fillColor=none;points=[[0,0.5],[1,0.5]];portConstraint=eastwest;" parent="XtQHe_jJkyNiMRD9y-V6-3" vertex="1">
          <mxGeometry width="280" height="41" as="geometry" />
        </mxCell>
        <mxCell id="XtQHe_jJkyNiMRD9y-V6-5" value="" style="shape=partialRectangle;html=1;whiteSpace=wrap;connectable=0;strokeColor=inherit;overflow=hidden;fillColor=none;top=0;left=0;bottom=0;right=0;pointerEvents=1;" parent="XtQHe_jJkyNiMRD9y-V6-4" vertex="1">
          <mxGeometry width="47" height="41" as="geometry">
            <mxRectangle width="47" height="41" as="alternateBounds" />
          </mxGeometry>
        </mxCell>
        <mxCell id="XtQHe_jJkyNiMRD9y-V6-6" value="" style="shape=partialRectangle;html=1;whiteSpace=wrap;connectable=0;strokeColor=inherit;overflow=hidden;fillColor=none;top=0;left=0;bottom=0;right=0;pointerEvents=1;" parent="XtQHe_jJkyNiMRD9y-V6-4" vertex="1">
          <mxGeometry x="47" width="46" height="41" as="geometry">
            <mxRectangle width="46" height="41" as="alternateBounds" />
          </mxGeometry>
        </mxCell>
        <mxCell id="XtQHe_jJkyNiMRD9y-V6-7" value="" style="shape=partialRectangle;html=1;whiteSpace=wrap;connectable=0;strokeColor=inherit;overflow=hidden;fillColor=none;top=0;left=0;bottom=0;right=0;pointerEvents=1;" parent="XtQHe_jJkyNiMRD9y-V6-4" vertex="1">
          <mxGeometry x="93" width="48" height="41" as="geometry">
            <mxRectangle width="48" height="41" as="alternateBounds" />
          </mxGeometry>
        </mxCell>
        <mxCell id="XtQHe_jJkyNiMRD9y-V6-8" value="" style="shape=partialRectangle;html=1;whiteSpace=wrap;connectable=0;strokeColor=inherit;overflow=hidden;fillColor=none;top=0;left=0;bottom=0;right=0;pointerEvents=1;" parent="XtQHe_jJkyNiMRD9y-V6-4" vertex="1">
          <mxGeometry x="141" width="46" height="41" as="geometry">
            <mxRectangle width="46" height="41" as="alternateBounds" />
          </mxGeometry>
        </mxCell>
        <mxCell id="XtQHe_jJkyNiMRD9y-V6-38" style="shape=partialRectangle;html=1;whiteSpace=wrap;connectable=0;strokeColor=inherit;overflow=hidden;fillColor=none;top=0;left=0;bottom=0;right=0;pointerEvents=1;" parent="XtQHe_jJkyNiMRD9y-V6-4" vertex="1">
          <mxGeometry x="187" width="46" height="41" as="geometry">
            <mxRectangle width="46" height="41" as="alternateBounds" />
          </mxGeometry>
        </mxCell>
        <mxCell id="XtQHe_jJkyNiMRD9y-V6-44" style="shape=partialRectangle;html=1;whiteSpace=wrap;connectable=0;strokeColor=inherit;overflow=hidden;fillColor=none;top=0;left=0;bottom=0;right=0;pointerEvents=1;" parent="XtQHe_jJkyNiMRD9y-V6-4" vertex="1">
          <mxGeometry x="233" width="47" height="41" as="geometry">
            <mxRectangle width="47" height="41" as="alternateBounds" />
          </mxGeometry>
        </mxCell>
        <mxCell id="XtQHe_jJkyNiMRD9y-V6-9" value="" style="shape=tableRow;horizontal=0;startSize=0;swimlaneHead=0;swimlaneBody=0;strokeColor=inherit;top=0;left=0;bottom=0;right=0;collapsible=0;dropTarget=0;fillColor=none;points=[[0,0.5],[1,0.5]];portConstraint=eastwest;" parent="XtQHe_jJkyNiMRD9y-V6-3" vertex="1">
          <mxGeometry y="41" width="280" height="41" as="geometry" />
        </mxCell>
        <mxCell id="XtQHe_jJkyNiMRD9y-V6-10" value="" style="shape=partialRectangle;html=1;whiteSpace=wrap;connectable=0;strokeColor=inherit;overflow=hidden;fillColor=none;top=0;left=0;bottom=0;right=0;pointerEvents=1;" parent="XtQHe_jJkyNiMRD9y-V6-9" vertex="1">
          <mxGeometry width="47" height="41" as="geometry">
            <mxRectangle width="47" height="41" as="alternateBounds" />
          </mxGeometry>
        </mxCell>
        <mxCell id="XtQHe_jJkyNiMRD9y-V6-11" value="" style="shape=partialRectangle;html=1;whiteSpace=wrap;connectable=0;strokeColor=inherit;overflow=hidden;fillColor=none;top=0;left=0;bottom=0;right=0;pointerEvents=1;" parent="XtQHe_jJkyNiMRD9y-V6-9" vertex="1">
          <mxGeometry x="47" width="46" height="41" as="geometry">
            <mxRectangle width="46" height="41" as="alternateBounds" />
          </mxGeometry>
        </mxCell>
        <mxCell id="XtQHe_jJkyNiMRD9y-V6-12" value="" style="shape=partialRectangle;html=1;whiteSpace=wrap;connectable=0;strokeColor=inherit;overflow=hidden;fillColor=none;top=0;left=0;bottom=0;right=0;pointerEvents=1;" parent="XtQHe_jJkyNiMRD9y-V6-9" vertex="1">
          <mxGeometry x="93" width="48" height="41" as="geometry">
            <mxRectangle width="48" height="41" as="alternateBounds" />
          </mxGeometry>
        </mxCell>
        <mxCell id="XtQHe_jJkyNiMRD9y-V6-13" value="" style="shape=partialRectangle;html=1;whiteSpace=wrap;connectable=0;strokeColor=inherit;overflow=hidden;fillColor=none;top=0;left=0;bottom=0;right=0;pointerEvents=1;" parent="XtQHe_jJkyNiMRD9y-V6-9" vertex="1">
          <mxGeometry x="141" width="46" height="41" as="geometry">
            <mxRectangle width="46" height="41" as="alternateBounds" />
          </mxGeometry>
        </mxCell>
        <mxCell id="XtQHe_jJkyNiMRD9y-V6-39" style="shape=partialRectangle;html=1;whiteSpace=wrap;connectable=0;strokeColor=inherit;overflow=hidden;fillColor=none;top=0;left=0;bottom=0;right=0;pointerEvents=1;" parent="XtQHe_jJkyNiMRD9y-V6-9" vertex="1">
          <mxGeometry x="187" width="46" height="41" as="geometry">
            <mxRectangle width="46" height="41" as="alternateBounds" />
          </mxGeometry>
        </mxCell>
        <mxCell id="XtQHe_jJkyNiMRD9y-V6-45" style="shape=partialRectangle;html=1;whiteSpace=wrap;connectable=0;strokeColor=inherit;overflow=hidden;fillColor=none;top=0;left=0;bottom=0;right=0;pointerEvents=1;" parent="XtQHe_jJkyNiMRD9y-V6-9" vertex="1">
          <mxGeometry x="233" width="47" height="41" as="geometry">
            <mxRectangle width="47" height="41" as="alternateBounds" />
          </mxGeometry>
        </mxCell>
        <mxCell id="XtQHe_jJkyNiMRD9y-V6-14" value="" style="shape=tableRow;horizontal=0;startSize=0;swimlaneHead=0;swimlaneBody=0;strokeColor=inherit;top=0;left=0;bottom=0;right=0;collapsible=0;dropTarget=0;fillColor=none;points=[[0,0.5],[1,0.5]];portConstraint=eastwest;" parent="XtQHe_jJkyNiMRD9y-V6-3" vertex="1">
          <mxGeometry y="82" width="280" height="42" as="geometry" />
        </mxCell>
        <mxCell id="XtQHe_jJkyNiMRD9y-V6-15" value="" style="shape=partialRectangle;html=1;whiteSpace=wrap;connectable=0;strokeColor=inherit;overflow=hidden;fillColor=none;top=0;left=0;bottom=0;right=0;pointerEvents=1;" parent="XtQHe_jJkyNiMRD9y-V6-14" vertex="1">
          <mxGeometry width="47" height="42" as="geometry">
            <mxRectangle width="47" height="42" as="alternateBounds" />
          </mxGeometry>
        </mxCell>
        <mxCell id="XtQHe_jJkyNiMRD9y-V6-16" value="" style="shape=partialRectangle;html=1;whiteSpace=wrap;connectable=0;strokeColor=inherit;overflow=hidden;fillColor=none;top=0;left=0;bottom=0;right=0;pointerEvents=1;" parent="XtQHe_jJkyNiMRD9y-V6-14" vertex="1">
          <mxGeometry x="47" width="46" height="42" as="geometry">
            <mxRectangle width="46" height="42" as="alternateBounds" />
          </mxGeometry>
        </mxCell>
        <mxCell id="XtQHe_jJkyNiMRD9y-V6-17" value="" style="shape=partialRectangle;html=1;whiteSpace=wrap;connectable=0;strokeColor=inherit;overflow=hidden;fillColor=none;top=0;left=0;bottom=0;right=0;pointerEvents=1;" parent="XtQHe_jJkyNiMRD9y-V6-14" vertex="1">
          <mxGeometry x="93" width="48" height="42" as="geometry">
            <mxRectangle width="48" height="42" as="alternateBounds" />
          </mxGeometry>
        </mxCell>
        <mxCell id="XtQHe_jJkyNiMRD9y-V6-18" value="" style="shape=partialRectangle;html=1;whiteSpace=wrap;connectable=0;strokeColor=inherit;overflow=hidden;fillColor=none;top=0;left=0;bottom=0;right=0;pointerEvents=1;" parent="XtQHe_jJkyNiMRD9y-V6-14" vertex="1">
          <mxGeometry x="141" width="46" height="42" as="geometry">
            <mxRectangle width="46" height="42" as="alternateBounds" />
          </mxGeometry>
        </mxCell>
        <mxCell id="XtQHe_jJkyNiMRD9y-V6-40" style="shape=partialRectangle;html=1;whiteSpace=wrap;connectable=0;strokeColor=inherit;overflow=hidden;fillColor=none;top=0;left=0;bottom=0;right=0;pointerEvents=1;" parent="XtQHe_jJkyNiMRD9y-V6-14" vertex="1">
          <mxGeometry x="187" width="46" height="42" as="geometry">
            <mxRectangle width="46" height="42" as="alternateBounds" />
          </mxGeometry>
        </mxCell>
        <mxCell id="XtQHe_jJkyNiMRD9y-V6-46" style="shape=partialRectangle;html=1;whiteSpace=wrap;connectable=0;strokeColor=inherit;overflow=hidden;fillColor=none;top=0;left=0;bottom=0;right=0;pointerEvents=1;" parent="XtQHe_jJkyNiMRD9y-V6-14" vertex="1">
          <mxGeometry x="233" width="47" height="42" as="geometry">
            <mxRectangle width="47" height="42" as="alternateBounds" />
          </mxGeometry>
        </mxCell>
        <mxCell id="XtQHe_jJkyNiMRD9y-V6-19" value="" style="shape=tableRow;horizontal=0;startSize=0;swimlaneHead=0;swimlaneBody=0;strokeColor=inherit;top=0;left=0;bottom=0;right=0;collapsible=0;dropTarget=0;fillColor=none;points=[[0,0.5],[1,0.5]];portConstraint=eastwest;" parent="XtQHe_jJkyNiMRD9y-V6-3" vertex="1">
          <mxGeometry y="124" width="280" height="41" as="geometry" />
        </mxCell>
        <mxCell id="XtQHe_jJkyNiMRD9y-V6-20" value="" style="shape=partialRectangle;html=1;whiteSpace=wrap;connectable=0;strokeColor=inherit;overflow=hidden;fillColor=none;top=0;left=0;bottom=0;right=0;pointerEvents=1;" parent="XtQHe_jJkyNiMRD9y-V6-19" vertex="1">
          <mxGeometry width="47" height="41" as="geometry">
            <mxRectangle width="47" height="41" as="alternateBounds" />
          </mxGeometry>
        </mxCell>
        <mxCell id="XtQHe_jJkyNiMRD9y-V6-21" value="" style="shape=partialRectangle;html=1;whiteSpace=wrap;connectable=0;strokeColor=inherit;overflow=hidden;fillColor=none;top=0;left=0;bottom=0;right=0;pointerEvents=1;" parent="XtQHe_jJkyNiMRD9y-V6-19" vertex="1">
          <mxGeometry x="47" width="46" height="41" as="geometry">
            <mxRectangle width="46" height="41" as="alternateBounds" />
          </mxGeometry>
        </mxCell>
        <mxCell id="XtQHe_jJkyNiMRD9y-V6-22" value="" style="shape=partialRectangle;html=1;whiteSpace=wrap;connectable=0;strokeColor=inherit;overflow=hidden;fillColor=none;top=0;left=0;bottom=0;right=0;pointerEvents=1;" parent="XtQHe_jJkyNiMRD9y-V6-19" vertex="1">
          <mxGeometry x="93" width="48" height="41" as="geometry">
            <mxRectangle width="48" height="41" as="alternateBounds" />
          </mxGeometry>
        </mxCell>
        <mxCell id="XtQHe_jJkyNiMRD9y-V6-23" value="" style="shape=partialRectangle;html=1;whiteSpace=wrap;connectable=0;strokeColor=inherit;overflow=hidden;fillColor=none;top=0;left=0;bottom=0;right=0;pointerEvents=1;" parent="XtQHe_jJkyNiMRD9y-V6-19" vertex="1">
          <mxGeometry x="141" width="46" height="41" as="geometry">
            <mxRectangle width="46" height="41" as="alternateBounds" />
          </mxGeometry>
        </mxCell>
        <mxCell id="XtQHe_jJkyNiMRD9y-V6-41" style="shape=partialRectangle;html=1;whiteSpace=wrap;connectable=0;strokeColor=inherit;overflow=hidden;fillColor=none;top=0;left=0;bottom=0;right=0;pointerEvents=1;" parent="XtQHe_jJkyNiMRD9y-V6-19" vertex="1">
          <mxGeometry x="187" width="46" height="41" as="geometry">
            <mxRectangle width="46" height="41" as="alternateBounds" />
          </mxGeometry>
        </mxCell>
        <mxCell id="XtQHe_jJkyNiMRD9y-V6-47" style="shape=partialRectangle;html=1;whiteSpace=wrap;connectable=0;strokeColor=inherit;overflow=hidden;fillColor=none;top=0;left=0;bottom=0;right=0;pointerEvents=1;" parent="XtQHe_jJkyNiMRD9y-V6-19" vertex="1">
          <mxGeometry x="233" width="47" height="41" as="geometry">
            <mxRectangle width="47" height="41" as="alternateBounds" />
          </mxGeometry>
        </mxCell>
        <mxCell id="XtQHe_jJkyNiMRD9y-V6-24" value="" style="shape=tableRow;horizontal=0;startSize=0;swimlaneHead=0;swimlaneBody=0;strokeColor=inherit;top=0;left=0;bottom=0;right=0;collapsible=0;dropTarget=0;fillColor=none;points=[[0,0.5],[1,0.5]];portConstraint=eastwest;" parent="XtQHe_jJkyNiMRD9y-V6-3" vertex="1">
          <mxGeometry y="165" width="280" height="41" as="geometry" />
        </mxCell>
        <mxCell id="XtQHe_jJkyNiMRD9y-V6-25" value="" style="shape=partialRectangle;html=1;whiteSpace=wrap;connectable=0;strokeColor=inherit;overflow=hidden;fillColor=none;top=0;left=0;bottom=0;right=0;pointerEvents=1;" parent="XtQHe_jJkyNiMRD9y-V6-24" vertex="1">
          <mxGeometry width="47" height="41" as="geometry">
            <mxRectangle width="47" height="41" as="alternateBounds" />
          </mxGeometry>
        </mxCell>
        <mxCell id="XtQHe_jJkyNiMRD9y-V6-26" value="" style="shape=partialRectangle;html=1;whiteSpace=wrap;connectable=0;strokeColor=inherit;overflow=hidden;fillColor=none;top=0;left=0;bottom=0;right=0;pointerEvents=1;" parent="XtQHe_jJkyNiMRD9y-V6-24" vertex="1">
          <mxGeometry x="47" width="46" height="41" as="geometry">
            <mxRectangle width="46" height="41" as="alternateBounds" />
          </mxGeometry>
        </mxCell>
        <mxCell id="XtQHe_jJkyNiMRD9y-V6-27" value="" style="shape=partialRectangle;html=1;whiteSpace=wrap;connectable=0;strokeColor=inherit;overflow=hidden;fillColor=none;top=0;left=0;bottom=0;right=0;pointerEvents=1;" parent="XtQHe_jJkyNiMRD9y-V6-24" vertex="1">
          <mxGeometry x="93" width="48" height="41" as="geometry">
            <mxRectangle width="48" height="41" as="alternateBounds" />
          </mxGeometry>
        </mxCell>
        <mxCell id="XtQHe_jJkyNiMRD9y-V6-28" value="" style="shape=partialRectangle;html=1;whiteSpace=wrap;connectable=0;strokeColor=inherit;overflow=hidden;fillColor=none;top=0;left=0;bottom=0;right=0;pointerEvents=1;" parent="XtQHe_jJkyNiMRD9y-V6-24" vertex="1">
          <mxGeometry x="141" width="46" height="41" as="geometry">
            <mxRectangle width="46" height="41" as="alternateBounds" />
          </mxGeometry>
        </mxCell>
        <mxCell id="XtQHe_jJkyNiMRD9y-V6-42" style="shape=partialRectangle;html=1;whiteSpace=wrap;connectable=0;strokeColor=inherit;overflow=hidden;fillColor=none;top=0;left=0;bottom=0;right=0;pointerEvents=1;" parent="XtQHe_jJkyNiMRD9y-V6-24" vertex="1">
          <mxGeometry x="187" width="46" height="41" as="geometry">
            <mxRectangle width="46" height="41" as="alternateBounds" />
          </mxGeometry>
        </mxCell>
        <mxCell id="XtQHe_jJkyNiMRD9y-V6-48" style="shape=partialRectangle;html=1;whiteSpace=wrap;connectable=0;strokeColor=inherit;overflow=hidden;fillColor=none;top=0;left=0;bottom=0;right=0;pointerEvents=1;" parent="XtQHe_jJkyNiMRD9y-V6-24" vertex="1">
          <mxGeometry x="233" width="47" height="41" as="geometry">
            <mxRectangle width="47" height="41" as="alternateBounds" />
          </mxGeometry>
        </mxCell>
        <mxCell id="XtQHe_jJkyNiMRD9y-V6-29" value="" style="shape=tableRow;horizontal=0;startSize=0;swimlaneHead=0;swimlaneBody=0;strokeColor=inherit;top=0;left=0;bottom=0;right=0;collapsible=0;dropTarget=0;fillColor=none;points=[[0,0.5],[1,0.5]];portConstraint=eastwest;" parent="XtQHe_jJkyNiMRD9y-V6-3" vertex="1">
          <mxGeometry y="206" width="280" height="41" as="geometry" />
        </mxCell>
        <mxCell id="XtQHe_jJkyNiMRD9y-V6-30" value="" style="shape=partialRectangle;html=1;whiteSpace=wrap;connectable=0;strokeColor=inherit;overflow=hidden;fillColor=none;top=0;left=0;bottom=0;right=0;pointerEvents=1;" parent="XtQHe_jJkyNiMRD9y-V6-29" vertex="1">
          <mxGeometry width="47" height="41" as="geometry">
            <mxRectangle width="47" height="41" as="alternateBounds" />
          </mxGeometry>
        </mxCell>
        <mxCell id="XtQHe_jJkyNiMRD9y-V6-31" value="" style="shape=partialRectangle;html=1;whiteSpace=wrap;connectable=0;strokeColor=inherit;overflow=hidden;fillColor=none;top=0;left=0;bottom=0;right=0;pointerEvents=1;" parent="XtQHe_jJkyNiMRD9y-V6-29" vertex="1">
          <mxGeometry x="47" width="46" height="41" as="geometry">
            <mxRectangle width="46" height="41" as="alternateBounds" />
          </mxGeometry>
        </mxCell>
        <mxCell id="XtQHe_jJkyNiMRD9y-V6-32" value="" style="shape=partialRectangle;html=1;whiteSpace=wrap;connectable=0;strokeColor=inherit;overflow=hidden;fillColor=none;top=0;left=0;bottom=0;right=0;pointerEvents=1;" parent="XtQHe_jJkyNiMRD9y-V6-29" vertex="1">
          <mxGeometry x="93" width="48" height="41" as="geometry">
            <mxRectangle width="48" height="41" as="alternateBounds" />
          </mxGeometry>
        </mxCell>
        <mxCell id="XtQHe_jJkyNiMRD9y-V6-33" value="" style="shape=partialRectangle;html=1;whiteSpace=wrap;connectable=0;strokeColor=inherit;overflow=hidden;fillColor=none;top=0;left=0;bottom=0;right=0;pointerEvents=1;" parent="XtQHe_jJkyNiMRD9y-V6-29" vertex="1">
          <mxGeometry x="141" width="46" height="41" as="geometry">
            <mxRectangle width="46" height="41" as="alternateBounds" />
          </mxGeometry>
        </mxCell>
        <mxCell id="XtQHe_jJkyNiMRD9y-V6-43" style="shape=partialRectangle;html=1;whiteSpace=wrap;connectable=0;strokeColor=inherit;overflow=hidden;fillColor=none;top=0;left=0;bottom=0;right=0;pointerEvents=1;" parent="XtQHe_jJkyNiMRD9y-V6-29" vertex="1">
          <mxGeometry x="187" width="46" height="41" as="geometry">
            <mxRectangle width="46" height="41" as="alternateBounds" />
          </mxGeometry>
        </mxCell>
        <mxCell id="XtQHe_jJkyNiMRD9y-V6-49" style="shape=partialRectangle;html=1;whiteSpace=wrap;connectable=0;strokeColor=inherit;overflow=hidden;fillColor=none;top=0;left=0;bottom=0;right=0;pointerEvents=1;" parent="XtQHe_jJkyNiMRD9y-V6-29" vertex="1">
          <mxGeometry x="233" width="47" height="41" as="geometry">
            <mxRectangle width="47" height="41" as="alternateBounds" />
          </mxGeometry>
        </mxCell>
        <mxCell id="XtQHe_jJkyNiMRD9y-V6-51" style="shape=tableRow;horizontal=0;startSize=0;swimlaneHead=0;swimlaneBody=0;strokeColor=inherit;top=0;left=0;bottom=0;right=0;collapsible=0;dropTarget=0;fillColor=none;points=[[0,0.5],[1,0.5]];portConstraint=eastwest;" parent="XtQHe_jJkyNiMRD9y-V6-3" vertex="1">
          <mxGeometry y="247" width="280" height="42" as="geometry" />
        </mxCell>
        <mxCell id="XtQHe_jJkyNiMRD9y-V6-52" style="shape=partialRectangle;html=1;whiteSpace=wrap;connectable=0;strokeColor=inherit;overflow=hidden;fillColor=none;top=0;left=0;bottom=0;right=0;pointerEvents=1;" parent="XtQHe_jJkyNiMRD9y-V6-51" vertex="1">
          <mxGeometry width="47" height="42" as="geometry">
            <mxRectangle width="47" height="42" as="alternateBounds" />
          </mxGeometry>
        </mxCell>
        <mxCell id="XtQHe_jJkyNiMRD9y-V6-53" style="shape=partialRectangle;html=1;whiteSpace=wrap;connectable=0;strokeColor=inherit;overflow=hidden;fillColor=none;top=0;left=0;bottom=0;right=0;pointerEvents=1;" parent="XtQHe_jJkyNiMRD9y-V6-51" vertex="1">
          <mxGeometry x="47" width="46" height="42" as="geometry">
            <mxRectangle width="46" height="42" as="alternateBounds" />
          </mxGeometry>
        </mxCell>
        <mxCell id="XtQHe_jJkyNiMRD9y-V6-54" style="shape=partialRectangle;html=1;whiteSpace=wrap;connectable=0;strokeColor=inherit;overflow=hidden;fillColor=none;top=0;left=0;bottom=0;right=0;pointerEvents=1;" parent="XtQHe_jJkyNiMRD9y-V6-51" vertex="1">
          <mxGeometry x="93" width="48" height="42" as="geometry">
            <mxRectangle width="48" height="42" as="alternateBounds" />
          </mxGeometry>
        </mxCell>
        <mxCell id="XtQHe_jJkyNiMRD9y-V6-55" style="shape=partialRectangle;html=1;whiteSpace=wrap;connectable=0;strokeColor=inherit;overflow=hidden;fillColor=none;top=0;left=0;bottom=0;right=0;pointerEvents=1;" parent="XtQHe_jJkyNiMRD9y-V6-51" vertex="1">
          <mxGeometry x="141" width="46" height="42" as="geometry">
            <mxRectangle width="46" height="42" as="alternateBounds" />
          </mxGeometry>
        </mxCell>
        <mxCell id="XtQHe_jJkyNiMRD9y-V6-56" style="shape=partialRectangle;html=1;whiteSpace=wrap;connectable=0;strokeColor=inherit;overflow=hidden;fillColor=none;top=0;left=0;bottom=0;right=0;pointerEvents=1;" parent="XtQHe_jJkyNiMRD9y-V6-51" vertex="1">
          <mxGeometry x="187" width="46" height="42" as="geometry">
            <mxRectangle width="46" height="42" as="alternateBounds" />
          </mxGeometry>
        </mxCell>
        <mxCell id="XtQHe_jJkyNiMRD9y-V6-57" style="shape=partialRectangle;html=1;whiteSpace=wrap;connectable=0;strokeColor=inherit;overflow=hidden;fillColor=none;top=0;left=0;bottom=0;right=0;pointerEvents=1;" parent="XtQHe_jJkyNiMRD9y-V6-51" vertex="1">
          <mxGeometry x="233" width="47" height="42" as="geometry">
            <mxRectangle width="47" height="42" as="alternateBounds" />
          </mxGeometry>
        </mxCell>
        <mxCell id="XtQHe_jJkyNiMRD9y-V6-58" style="shape=tableRow;horizontal=0;startSize=0;swimlaneHead=0;swimlaneBody=0;strokeColor=inherit;top=0;left=0;bottom=0;right=0;collapsible=0;dropTarget=0;fillColor=none;points=[[0,0.5],[1,0.5]];portConstraint=eastwest;" parent="XtQHe_jJkyNiMRD9y-V6-3" vertex="1">
          <mxGeometry y="289" width="280" height="41" as="geometry" />
        </mxCell>
        <mxCell id="XtQHe_jJkyNiMRD9y-V6-59" style="shape=partialRectangle;html=1;whiteSpace=wrap;connectable=0;strokeColor=inherit;overflow=hidden;fillColor=none;top=0;left=0;bottom=0;right=0;pointerEvents=1;" parent="XtQHe_jJkyNiMRD9y-V6-58" vertex="1">
          <mxGeometry width="47" height="41" as="geometry">
            <mxRectangle width="47" height="41" as="alternateBounds" />
          </mxGeometry>
        </mxCell>
        <mxCell id="XtQHe_jJkyNiMRD9y-V6-60" style="shape=partialRectangle;html=1;whiteSpace=wrap;connectable=0;strokeColor=inherit;overflow=hidden;fillColor=none;top=0;left=0;bottom=0;right=0;pointerEvents=1;" parent="XtQHe_jJkyNiMRD9y-V6-58" vertex="1">
          <mxGeometry x="47" width="46" height="41" as="geometry">
            <mxRectangle width="46" height="41" as="alternateBounds" />
          </mxGeometry>
        </mxCell>
        <mxCell id="XtQHe_jJkyNiMRD9y-V6-61" style="shape=partialRectangle;html=1;whiteSpace=wrap;connectable=0;strokeColor=inherit;overflow=hidden;fillColor=none;top=0;left=0;bottom=0;right=0;pointerEvents=1;" parent="XtQHe_jJkyNiMRD9y-V6-58" vertex="1">
          <mxGeometry x="93" width="48" height="41" as="geometry">
            <mxRectangle width="48" height="41" as="alternateBounds" />
          </mxGeometry>
        </mxCell>
        <mxCell id="XtQHe_jJkyNiMRD9y-V6-62" style="shape=partialRectangle;html=1;whiteSpace=wrap;connectable=0;strokeColor=inherit;overflow=hidden;fillColor=none;top=0;left=0;bottom=0;right=0;pointerEvents=1;" parent="XtQHe_jJkyNiMRD9y-V6-58" vertex="1">
          <mxGeometry x="141" width="46" height="41" as="geometry">
            <mxRectangle width="46" height="41" as="alternateBounds" />
          </mxGeometry>
        </mxCell>
        <mxCell id="XtQHe_jJkyNiMRD9y-V6-63" style="shape=partialRectangle;html=1;whiteSpace=wrap;connectable=0;strokeColor=inherit;overflow=hidden;fillColor=none;top=0;left=0;bottom=0;right=0;pointerEvents=1;" parent="XtQHe_jJkyNiMRD9y-V6-58" vertex="1">
          <mxGeometry x="187" width="46" height="41" as="geometry">
            <mxRectangle width="46" height="41" as="alternateBounds" />
          </mxGeometry>
        </mxCell>
        <mxCell id="XtQHe_jJkyNiMRD9y-V6-64" style="shape=partialRectangle;html=1;whiteSpace=wrap;connectable=0;strokeColor=inherit;overflow=hidden;fillColor=none;top=0;left=0;bottom=0;right=0;pointerEvents=1;" parent="XtQHe_jJkyNiMRD9y-V6-58" vertex="1">
          <mxGeometry x="233" width="47" height="41" as="geometry">
            <mxRectangle width="47" height="41" as="alternateBounds" />
          </mxGeometry>
        </mxCell>
        <mxCell id="XtQHe_jJkyNiMRD9y-V6-50" value="素材" style="rounded=1;whiteSpace=wrap;html=1;" parent="1" vertex="1">
          <mxGeometry x="849" y="370" width="55" height="40" as="geometry" />
        </mxCell>
        <mxCell id="XtQHe_jJkyNiMRD9y-V6-66" value="消耗品提示" style="text;strokeColor=none;align=center;fillColor=none;html=1;verticalAlign=middle;whiteSpace=wrap;rounded=0;" parent="1" vertex="1">
          <mxGeometry x="1090" y="300" width="80" height="30" as="geometry" />
        </mxCell>
        <mxCell id="XtQHe_jJkyNiMRD9y-V6-67" value="" style="shape=table;startSize=0;container=1;collapsible=0;childLayout=tableLayout;" parent="1" vertex="1">
          <mxGeometry x="1100" y="340" width="150" height="60" as="geometry" />
        </mxCell>
        <mxCell id="XtQHe_jJkyNiMRD9y-V6-68" value="" style="shape=tableRow;horizontal=0;startSize=0;swimlaneHead=0;swimlaneBody=0;strokeColor=inherit;top=0;left=0;bottom=0;right=0;collapsible=0;dropTarget=0;fillColor=none;points=[[0,0.5],[1,0.5]];portConstraint=eastwest;" parent="XtQHe_jJkyNiMRD9y-V6-67" vertex="1">
          <mxGeometry width="150" height="20" as="geometry" />
        </mxCell>
        <mxCell id="XtQHe_jJkyNiMRD9y-V6-69" value="生命药水" style="shape=partialRectangle;html=1;whiteSpace=wrap;connectable=0;strokeColor=inherit;overflow=hidden;fillColor=none;top=0;left=0;bottom=0;right=0;pointerEvents=1;align=left;" parent="XtQHe_jJkyNiMRD9y-V6-68" vertex="1">
          <mxGeometry width="150" height="20" as="geometry">
            <mxRectangle width="150" height="20" as="alternateBounds" />
          </mxGeometry>
        </mxCell>
        <mxCell id="XtQHe_jJkyNiMRD9y-V6-70" value="" style="shape=tableRow;horizontal=0;startSize=0;swimlaneHead=0;swimlaneBody=0;strokeColor=inherit;top=0;left=0;bottom=0;right=0;collapsible=0;dropTarget=0;fillColor=none;points=[[0,0.5],[1,0.5]];portConstraint=eastwest;" parent="XtQHe_jJkyNiMRD9y-V6-67" vertex="1">
          <mxGeometry y="20" width="150" height="40" as="geometry" />
        </mxCell>
        <mxCell id="XtQHe_jJkyNiMRD9y-V6-71" value="治疗10h&lt;span style=&quot;background-color: transparent; color: light-dark(rgb(0, 0, 0), rgb(255, 255, 255));&quot;&gt;p&lt;/span&gt;" style="shape=partialRectangle;html=1;whiteSpace=wrap;connectable=0;strokeColor=inherit;overflow=hidden;fillColor=none;top=0;left=0;bottom=0;right=0;pointerEvents=1;" parent="XtQHe_jJkyNiMRD9y-V6-70" vertex="1">
          <mxGeometry width="150" height="40" as="geometry">
            <mxRectangle width="150" height="40" as="alternateBounds" />
          </mxGeometry>
        </mxCell>
        <mxCell id="XtQHe_jJkyNiMRD9y-V6-73" value="获取时间" style="rounded=1;whiteSpace=wrap;html=1;align=left;" parent="1" vertex="1">
          <mxGeometry x="664" y="481" width="25" height="60" as="geometry" />
        </mxCell>
        <mxCell id="2xsnZAV5AUe18enBX9PR-2" value="8x6" style="text;strokeColor=none;align=center;fillColor=none;html=1;verticalAlign=middle;whiteSpace=wrap;rounded=0;" vertex="1" parent="1">
          <mxGeometry x="1020" y="610" width="60" height="30" as="geometry" />
        </mxCell>
        <mxCell id="2xsnZAV5AUe18enBX9PR-3" value="" style="group" vertex="1" connectable="0" parent="1">
          <mxGeometry x="664" y="420" width="25" height="60" as="geometry" />
        </mxCell>
        <mxCell id="XtQHe_jJkyNiMRD9y-V6-72" value="名称" style="rounded=1;whiteSpace=wrap;html=1;align=left;" parent="2xsnZAV5AUe18enBX9PR-3" vertex="1">
          <mxGeometry width="25" height="60" as="geometry" />
        </mxCell>
        <mxCell id="2xsnZAV5AUe18enBX9PR-1" value="" style="endArrow=classic;html=1;rounded=0;" edge="1" parent="2xsnZAV5AUe18enBX9PR-3">
          <mxGeometry width="50" height="50" relative="1" as="geometry">
            <mxPoint x="19.000000000000114" y="42.69999999999999" as="sourcePoint" />
            <mxPoint x="19.000000000000114" y="17.30000000000001" as="targetPoint" />
          </mxGeometry>
        </mxCell>
      </root>
    </mxGraphModel>
  </diagram>
</mxfile>
